# 3ds Max Wavefront OBJ Exporter v0.97b - (c)2007 guruware
# File Created: 01.04.2018 02:28:54

mtllib RemoteMissileLoose.mtl

#
# object Cylinder005
#

v  1.8423 25.9039 -43.1639
v  1.5238 25.3541 -43.1159
v  1.0356 24.9461 -43.0802
v  0.4369 24.7290 -43.0612
v  -0.2003 24.7290 -43.0612
v  -0.7991 24.9461 -43.0802
v  -1.2872 25.3541 -43.1159
v  -1.6058 25.9039 -43.1639
v  -1.7164 26.5290 -43.2186
v  -1.6058 27.1541 -43.2733
v  -1.2872 27.7038 -43.3214
v  -0.7991 28.1118 -43.3571
v  -0.2003 28.3289 -43.3761
v  0.4369 28.3289 -43.3761
v  1.0356 28.1118 -43.3571
v  1.5238 27.7038 -43.3214
v  1.8423 27.1541 -43.2733
v  1.9530 26.5290 -43.2186
v  2.1736 26.3444 -45.3289
v  2.0496 27.0446 -45.3902
v  2.0496 27.5136 -40.0303
v  2.1736 26.8133 -39.9690
v  1.6927 27.6604 -45.4440
v  1.6927 28.1294 -40.0841
v  1.1459 28.1175 -45.4840
v  1.1459 28.5864 -40.1241
v  0.4752 28.3607 -45.5053
v  0.4752 28.8297 -40.1454
v  0.4752 29.8749 -47.9578
v  -0.2386 29.8749 -47.9578
v  -0.2386 30.3438 -42.5979
v  0.4752 30.3438 -42.5979
v  -0.2386 28.3607 -45.5053
v  -0.9094 28.1175 -45.4840
v  -0.9094 28.5864 -40.1241
v  -0.2386 28.8297 -40.1454
v  -1.4562 27.6604 -45.4440
v  -1.4562 28.1294 -40.0841
v  -1.8131 27.0446 -45.3902
v  -1.8131 27.5136 -40.0303
v  -1.9370 26.3444 -45.3289
v  -1.9370 26.8133 -39.9690
v  -3.4339 26.0814 -47.6259
v  -3.3099 25.3812 -47.5646
v  -3.3099 25.8501 -42.2047
v  -3.4339 26.5504 -42.2660
v  -1.8131 25.6441 -45.2676
v  -1.4562 25.0283 -45.2137
v  -1.4562 25.4972 -39.8538
v  -1.8131 26.1130 -39.9077
v  -0.9094 24.5712 -45.1738
v  -0.9094 25.0401 -39.8139
v  -0.2386 24.3280 -45.1525
v  -0.2386 24.7969 -39.7926
v  0.4752 24.3280 -45.1525
v  0.4752 24.7969 -39.7926
v  1.1459 24.5712 -45.1738
v  1.1459 25.0401 -39.8139
v  1.6927 25.0283 -45.2137
v  1.6927 25.4972 -39.8538
v  2.0496 25.6441 -45.2676
v  2.0496 26.1130 -39.9077
v  3.5465 25.3812 -47.5646
v  3.6704 26.0814 -47.6259
v  3.6704 26.5504 -42.2660
v  3.5465 25.8501 -42.2047
v  2.0496 27.9825 -34.6704
v  2.1736 27.2822 -34.6091
v  1.6927 28.5983 -34.7242
v  1.1459 29.0554 -34.7642
v  0.4752 29.2986 -34.7855
v  -0.2386 29.2986 -34.7855
v  -0.9094 29.0554 -34.7642
v  -1.4562 28.5983 -34.7242
v  -1.8131 27.9825 -34.6704
v  -1.9370 27.2822 -34.6091
v  -1.8131 26.5820 -34.5478
v  -1.4562 25.9661 -34.4939
v  -0.9094 25.5091 -34.4540
v  -0.2386 25.2659 -34.4327
v  0.4752 25.2659 -34.4327
v  1.1459 25.5091 -34.4540
v  1.6927 25.9661 -34.4939
v  2.0496 26.5819 -34.5478
v  2.0123 27.2822 -34.6091
v  1.8981 27.9276 -34.6655
v  1.8981 28.3965 -29.3056
v  2.0123 27.7512 -29.2492
v  1.5692 28.4951 -34.7152
v  1.5692 28.9640 -29.3553
v  1.0653 28.9163 -34.7520
v  1.0653 29.3852 -29.3921
v  0.4472 29.1404 -34.7717
v  0.4472 29.6093 -29.4118
v  -0.2106 29.1404 -34.7717
v  -0.2106 29.6093 -29.4118
v  -0.8287 28.9163 -34.7520
v  -0.8287 29.3852 -29.3921
v  -1.3326 28.4951 -34.7152
v  -1.3326 28.9640 -29.3553
v  -1.6615 27.9276 -34.6655
v  -1.6615 28.3965 -29.3056
v  -1.7758 27.2822 -34.6091
v  -1.7758 27.7512 -29.2492
v  -1.6615 26.6369 -34.5526
v  -1.6615 27.1058 -29.1927
v  -1.3326 26.0694 -34.5030
v  -1.3326 26.5383 -29.1431
v  -0.8287 25.6482 -34.4661
v  -0.8287 26.1171 -29.1062
v  -0.2106 25.4240 -34.4465
v  -0.2106 25.8930 -29.0866
v  0.4472 25.4240 -34.4465
v  0.4472 25.8930 -29.0866
v  1.0653 25.6482 -34.4661
v  1.0653 26.1171 -29.1062
v  1.5692 26.0694 -34.5030
v  1.5692 26.5383 -29.1431
v  1.8981 26.6369 -34.5526
v  1.8981 27.1058 -29.1927
v  2.1736 27.7512 -29.2492
v  2.0496 28.4514 -29.3105
v  2.0496 28.9204 -23.9506
v  2.1736 28.2201 -23.8893
v  1.6927 29.0672 -29.3643
v  1.6927 29.5362 -24.0044
v  1.1459 29.5243 -29.4043
v  1.1459 29.9932 -24.0444
v  0.4752 29.7675 -29.4256
v  0.4752 30.2364 -24.0657
v  -0.2386 29.7675 -29.4256
v  -0.2386 30.2364 -24.0657
v  -0.9094 29.5243 -29.4043
v  -0.9094 29.9932 -24.0444
v  -1.4562 29.0672 -29.3643
v  -1.4562 29.5362 -24.0044
v  -1.8131 28.4514 -29.3105
v  -1.8131 28.9204 -23.9506
v  -1.9370 27.7512 -29.2492
v  -1.9370 28.2201 -23.8893
v  -1.8131 27.0509 -29.1879
v  -1.8131 27.5198 -23.8280
v  -1.4562 26.4351 -29.1340
v  -1.4562 26.9040 -23.7741
v  -0.9094 25.9780 -29.0941
v  -0.9094 26.4469 -23.7342
v  -0.2386 25.7348 -29.0728
v  -0.2386 26.2037 -23.7129
v  0.4752 25.7348 -29.0728
v  0.4752 26.2037 -23.7129
v  1.1459 25.9780 -29.0941
v  1.1459 26.4469 -23.7342
v  1.6927 26.4351 -29.1340
v  1.6927 26.9040 -23.7741
v  2.0496 27.0509 -29.1879
v  2.0496 27.5198 -23.8280
v  2.0496 29.3893 -18.5906
v  2.1736 28.6890 -18.5294
v  1.6927 30.0051 -18.6445
v  1.1459 30.4622 -18.6845
v  0.4752 30.7054 -18.7058
v  0.4752 30.9857 -25.0262
v  -0.2386 30.9857 -25.0262
v  -0.2386 31.4547 -19.6663
v  0.4752 31.4547 -19.6663
v  -0.9094 30.4622 -18.6845
v  -0.2386 30.7054 -18.7058
v  -1.4562 30.0051 -18.6445
v  -1.8131 29.3893 -18.5906
v  -1.9370 28.6890 -18.5294
v  -2.6777 28.0900 -24.7728
v  -2.5538 27.3897 -24.7116
v  -2.5538 27.8586 -19.3517
v  -2.6777 28.5589 -19.4129
v  -1.4562 27.3729 -18.4142
v  -1.8131 27.9887 -18.4681
v  -0.9094 26.9159 -18.3743
v  -0.2386 26.6727 -18.3530
v  0.4752 26.6727 -18.3530
v  1.1459 26.9159 -18.3743
v  1.6927 27.3729 -18.4142
v  2.0496 27.9887 -18.4681
v  2.7904 27.3897 -24.7116
v  2.9143 28.0900 -24.7728
v  2.9143 28.5589 -19.4129
v  2.7904 27.8586 -19.3517
v  0.1412 29.3475 -10.9065
v  0.1427 29.3559 -10.9072
v  0.1412 29.3642 -10.9079
v  0.1370 29.3715 -10.9086
v  0.1305 29.3770 -10.9090
v  0.1225 29.3798 -10.9093
v  0.1140 29.3798 -10.9093
v  0.1061 29.3770 -10.9090
v  0.0996 29.3715 -10.9086
v  0.0953 29.3642 -10.9079
v  0.0939 29.3559 -10.9072
v  0.0953 29.3475 -10.9065
v  0.0996 29.3402 -10.9058
v  0.1061 29.3348 -10.9053
v  0.1140 29.3319 -10.9051
v  0.1225 29.3319 -10.9051
v  0.1305 29.3348 -10.9053
v  0.1370 29.3402 -10.9058
v  1.9530 26.3444 -45.3289
v  1.8423 26.9695 -45.3836
v  1.8423 25.7192 -45.2742
v  1.5238 25.1695 -45.2261
v  1.0356 24.7615 -45.1904
v  0.4369 24.5444 -45.1714
v  -0.2003 24.5444 -45.1714
v  -0.7991 24.7615 -45.1904
v  -1.2872 25.1695 -45.2261
v  -1.6058 25.7192 -45.2742
v  -1.7164 26.3444 -45.3289
v  -1.6058 26.9695 -45.3836
v  -1.2872 27.5192 -45.4317
v  -0.7991 27.9272 -45.4674
v  -0.2003 28.1443 -45.4864
v  0.4369 28.1443 -45.4864
v  1.0356 27.9272 -45.4674
v  1.5238 27.5192 -45.4317
# 222 vertices

vn -0.6975 0.1945 -0.6896
vn -0.5686 0.4169 -0.7091
vn -0.3712 0.5820 -0.7235
vn -0.1289 0.6699 -0.7312
vn 0.1289 0.6699 -0.7312
vn 0.3712 0.5820 -0.7235
vn 0.5687 0.4169 -0.7091
vn 0.6976 0.1945 -0.6896
vn 0.7423 -0.0584 -0.6675
vn 0.6976 -0.3113 -0.6454
vn 0.5686 -0.5337 -0.6259
vn 0.3711 -0.6988 -0.6115
vn 0.1289 -0.7866 -0.6038
vn -0.1289 -0.7867 -0.6038
vn -0.3711 -0.6988 -0.6115
vn -0.5686 -0.5337 -0.6259
vn -0.6975 -0.3113 -0.6454
vn -0.7423 -0.0584 -0.6675
vn 0.0605 0.5710 -0.8187
vn 0.6975 0.1945 -0.6896
vn 0.9397 0.3407 -0.0298
vn 0.9844 0.1115 0.1359
vn 0.5686 0.4169 -0.7091
vn 0.7661 0.6403 -0.0560
vn 0.3711 0.5820 -0.7236
vn 0.5000 0.8627 -0.0755
vn 0.6308 -0.0227 -0.7756
vn 0.2809 0.9571 0.0706
vn 0.5436 0.1937 -0.8167
vn -0.5436 0.1937 -0.8167
vn -0.6426 0.7455 0.1769
vn 0.6426 0.7455 0.1768
vn -0.6308 -0.0228 -0.7756
vn -0.5000 0.8627 -0.0755
vn -0.2809 0.9571 0.0706
vn -0.5687 0.4169 -0.7091
vn -0.7660 0.6403 -0.0560
vn -0.6976 0.1945 -0.6896
vn -0.9397 0.3407 -0.0298
vn -0.0606 0.5710 -0.8187
vn -0.9844 0.1115 0.1359
vn -0.3234 0.4405 -0.8375
vn -0.1487 -0.6272 -0.7645
vn -0.6585 -0.7021 0.2709
vn -0.7928 0.5849 0.1715
vn -0.0027 -0.7192 -0.6947
vn -0.5687 -0.5337 -0.6259
vn -0.7660 -0.6403 0.0560
vn -0.8934 -0.4164 0.1688
vn -0.3712 -0.6988 -0.6115
vn -0.5000 -0.8627 0.0755
vn -0.1736 -0.9811 0.0858
vn 0.1289 -0.7867 -0.6038
vn 0.1736 -0.9811 0.0858
vn 0.3712 -0.6988 -0.6115
vn 0.5000 -0.8627 0.0755
vn 0.7660 -0.6404 0.0560
vn 0.0027 -0.7192 -0.6948
vn 0.8934 -0.4164 0.1689
vn 0.1487 -0.6272 -0.7645
vn 0.3234 0.4405 -0.8375
vn 0.7928 0.5849 0.1715
vn 0.6585 -0.7021 0.2709
vn 0.6975 0.3113 0.6454
vn 0.7423 0.0584 0.6676
vn 0.5686 0.5337 0.6259
vn 0.3711 0.6988 0.6115
vn 0.1289 0.7867 0.6038
vn -0.1289 0.7866 0.6038
vn -0.3712 0.6988 0.6115
vn -0.5687 0.5337 0.6259
vn -0.6976 0.3113 0.6454
vn -0.7423 0.0584 0.6675
vn -0.6976 -0.1945 0.6896
vn -0.5687 -0.4169 0.7091
vn -0.3712 -0.5820 0.7235
vn -0.1289 -0.6699 0.7312
vn 0.1289 -0.6699 0.7312
vn 0.3712 -0.5820 0.7235
vn 0.5686 -0.4169 0.7091
vn 0.6975 -0.1945 0.6897
vn 0.6633 0.0652 0.7455
vn 0.6233 0.2912 0.7257
vn 0.6233 0.1608 -0.7653
vn 0.6633 -0.0652 -0.7455
vn 0.5081 0.4900 0.7084
vn 0.5081 0.3595 -0.7827
vn 0.3316 0.6375 0.6954
vn 0.3316 0.5070 -0.7956
vn 0.1152 0.7160 0.6886
vn 0.1152 0.5855 -0.8024
vn -0.1152 0.7159 0.6886
vn -0.1152 0.5855 -0.8025
vn -0.3316 0.6374 0.6955
vn -0.3316 0.5070 -0.7956
vn -0.5081 0.4900 0.7084
vn -0.5081 0.3595 -0.7827
vn -0.6233 0.2912 0.7257
vn -0.6233 0.1608 -0.7653
vn -0.6633 0.0652 0.7455
vn -0.6633 -0.0652 -0.7455
vn -0.6233 -0.1608 0.7653
vn -0.6233 -0.2912 -0.7257
vn -0.5081 -0.3595 0.7827
vn -0.5081 -0.4900 -0.7084
vn -0.3316 -0.5070 0.7956
vn -0.3316 -0.6375 -0.6954
vn -0.1152 -0.5855 0.8024
vn -0.1152 -0.7160 -0.6886
vn 0.1152 -0.5855 0.8025
vn 0.1152 -0.7159 -0.6886
vn 0.3316 -0.5070 0.7956
vn 0.3316 -0.6374 -0.6955
vn 0.5081 -0.3595 0.7827
vn 0.5081 -0.4899 -0.7084
vn 0.6232 -0.1607 0.7654
vn 0.6232 -0.2912 -0.7258
vn 0.7423 -0.0584 -0.6676
vn 0.7539 0.5974 -0.2735
vn 0.6997 0.6595 -0.2746
vn -0.1289 0.6698 -0.7312
vn -0.6998 0.6595 -0.2746
vn -0.7539 0.5973 -0.2735
vn -0.6976 -0.3113 -0.6454
vn -0.5757 -0.8092 -0.1170
vn 0.6975 -0.3113 -0.6454
vn 0.5756 -0.8093 -0.1171
vn 0.9320 0.3491 0.0975
vn 0.9463 0.1486 0.2873
vn 0.7598 0.6462 0.0715
vn 0.4959 0.8668 0.0522
vn 0.2956 0.9287 0.2239
vn 0.5460 0.2376 -0.8033
vn -0.5460 0.2376 -0.8033
vn -0.6332 0.7422 0.2196
vn 0.6332 0.7422 0.2196
vn -0.4959 0.8668 0.0522
vn -0.2956 0.9287 0.2239
vn -0.7598 0.6462 0.0715
vn -0.9320 0.3491 0.0975
vn -0.9463 0.1486 0.2873
vn -0.3699 0.4349 -0.8210
vn -0.1957 -0.6377 -0.7450
vn -0.6432 -0.6962 0.3188
vn -0.7943 0.5672 0.2179
vn -0.7598 -0.6240 0.1826
vn -0.8520 -0.4129 0.3218
vn -0.4959 -0.8446 0.2019
vn -0.1722 -0.9619 0.2122
vn 0.1722 -0.9619 0.2122
vn 0.4959 -0.8446 0.2019
vn 0.7598 -0.6240 0.1826
vn 0.8520 -0.4129 0.3218
vn 0.1957 -0.6377 -0.7450
vn 0.3699 0.4349 -0.8210
vn 0.7943 0.5672 0.2179
vn 0.6432 -0.6962 0.3188
vn 0.6098 -0.1548 0.7773
vn 0.6489 0.0663 0.7580
vn 0.6098 0.2874 0.7386
vn 0.4971 0.4818 0.7216
vn 0.3244 0.6261 0.7090
vn 0.1127 0.7029 0.7023
vn -0.1127 0.7029 0.7023
vn -0.3244 0.6261 0.7090
vn -0.4971 0.4818 0.7216
vn -0.6097 0.2874 0.7387
vn -0.6489 0.0663 0.7580
vn -0.6097 -0.1548 0.7773
vn -0.4971 -0.3492 0.7943
vn -0.3244 -0.4935 0.8070
vn -0.1127 -0.5703 0.8137
vn 0.1127 -0.5703 0.8137
vn 0.3244 -0.4935 0.8070
vn 0.4971 -0.3492 0.7943
vn -0.6633 -0.0652 -0.7456
vn -0.6232 -0.2912 -0.7258
vn -0.6233 0.1607 -0.7653
vn -0.1152 0.5855 -0.8024
vn 0.6233 -0.2912 -0.7257
vn -0.3316 -0.6374 -0.6955
vn -0.5081 -0.4899 -0.7084
# 182 vertex normals

vt 0.3400 0.0000 0.0000
vt 0.1953 0.0000 -0.3473
vt 0.0874 0.0000 -0.6527
vt 0.0292 0.0000 -0.8794
vt 0.0278 0.0000 -1.0000
vt 0.0833 0.0000 -1.0000
vt 0.1891 0.0000 -0.8794
vt 0.3325 0.0000 -0.6527
vt 0.4960 0.0000 -0.3473
vt 0.6600 0.0000 -0.0000
vt 0.8047 0.0000 0.3473
vt 0.9126 0.0000 0.6527
vt 0.9708 0.0000 0.8794
vt 0.9722 0.0000 1.0000
vt 0.9167 0.0000 1.0000
vt 0.8611 0.0000 1.0000
vt 0.8056 0.0000 1.0000
vt 0.7500 0.0000 1.0000
vt 0.8056 0.2000 1.0000
vt 0.7500 0.2000 1.0000
vt 0.8611 0.2000 1.0000
vt 0.9167 0.2000 1.0000
vt 0.9722 0.2000 1.0000
vt -0.0278 0.0000 1.0000
vt 0.0278 0.0000 1.0000
vt 0.0278 0.2000 1.0000
vt -0.0278 0.2000 1.0000
vt 0.0833 0.0000 1.0000
vt 0.0833 0.2000 1.0000
vt 0.1389 0.0000 1.0000
vt 0.1389 0.2000 1.0000
vt 0.1944 0.0000 1.0000
vt 0.1944 0.2000 1.0000
vt 0.2500 0.0000 1.0000
vt 0.2500 0.2000 1.0000
vt 0.3056 0.0000 1.0000
vt 0.3056 0.2000 1.0000
vt 0.3611 0.0000 1.0000
vt 0.3611 0.2000 1.0000
vt 0.4167 0.0000 1.0000
vt 0.4167 0.2000 1.0000
vt 0.4722 0.0000 1.0000
vt 0.4722 0.2000 1.0000
vt 0.5278 0.0000 1.0000
vt 0.5278 0.2000 1.0000
vt 0.5833 0.0000 1.0000
vt 0.5833 0.2000 1.0000
vt 0.6389 0.0000 1.0000
vt 0.6389 0.2000 1.0000
vt 0.6944 0.0000 1.0000
vt 0.6944 0.2000 1.0000
vt 0.8056 0.4000 1.0000
vt 0.7500 0.4000 1.0000
vt 0.8611 0.4000 1.0000
vt 0.9167 0.4000 1.0000
vt 0.9722 0.4000 1.0000
vt 0.0278 0.4000 1.0000
vt -0.0278 0.4000 1.0000
vt 0.0833 0.4000 1.0000
vt 0.1389 0.4000 1.0000
vt 0.1944 0.4000 1.0000
vt 0.2500 0.4000 1.0000
vt 0.3056 0.4000 1.0000
vt 0.3611 0.4000 1.0000
vt 0.4167 0.4000 1.0000
vt 0.4722 0.4000 1.0000
vt 0.5278 0.4000 1.0000
vt 0.5833 0.4000 1.0000
vt 0.6389 0.4000 1.0000
vt 0.6944 0.4000 1.0000
vt 0.8056 0.6000 1.0000
vt 0.7500 0.6000 1.0000
vt 0.8611 0.6000 1.0000
vt 0.9167 0.6000 1.0000
vt 0.9722 0.6000 1.0000
vt 0.0278 0.6000 1.0000
vt -0.0278 0.6000 1.0000
vt 0.0833 0.6000 1.0000
vt 0.1389 0.6000 1.0000
vt 0.1944 0.6000 1.0000
vt 0.2500 0.6000 1.0000
vt 0.3056 0.6000 1.0000
vt 0.3611 0.6000 1.0000
vt 0.4167 0.6000 1.0000
vt 0.4722 0.6000 1.0000
vt 0.5278 0.6000 1.0000
vt 0.5833 0.6000 1.0000
vt 0.6389 0.6000 1.0000
vt 0.6944 0.6000 1.0000
vt 0.8056 0.8000 1.0000
vt 0.7500 0.8000 1.0000
vt 0.8611 0.8000 1.0000
vt 0.9167 0.8000 1.0000
vt 0.9722 0.8000 1.0000
vt 0.0278 0.8000 1.0000
vt -0.0278 0.8000 1.0000
vt 0.0833 0.8000 1.0000
vt 0.1389 0.8000 1.0000
vt 0.1944 0.8000 1.0000
vt 0.2500 0.8000 1.0000
vt 0.3056 0.8000 1.0000
vt 0.3611 0.8000 1.0000
vt 0.4167 0.8000 1.0000
vt 0.4722 0.8000 1.0000
vt 0.5278 0.8000 1.0000
vt 0.5833 0.8000 1.0000
vt 0.6389 0.8000 1.0000
vt 0.6944 0.8000 1.0000
vt 0.8056 1.0000 1.0000
vt 0.7500 1.0000 1.0000
vt 0.8611 1.0000 1.0000
vt 0.9167 1.0000 1.0000
vt 0.9722 1.0000 1.0000
vt 0.0278 1.0000 1.0000
vt -0.0278 1.0000 1.0000
vt 0.0833 1.0000 1.0000
vt 0.1389 1.0000 1.0000
vt 0.1944 1.0000 1.0000
vt 0.2500 1.0000 1.0000
vt 0.3056 1.0000 1.0000
vt 0.3611 1.0000 1.0000
vt 0.4167 1.0000 1.0000
vt 0.4722 1.0000 1.0000
vt 0.5278 1.0000 1.0000
vt 0.5833 1.0000 1.0000
vt 0.6389 1.0000 1.0000
vt 0.6944 1.0000 1.0000
vt 0.9708 1.0000 0.8794
vt 0.9126 1.0000 0.6527
vt 0.8047 1.0000 0.3473
vt 0.6600 1.0000 0.0000
vt 0.4960 1.0000 -0.3473
vt 0.3325 1.0000 -0.6527
vt 0.1891 1.0000 -0.8794
vt 0.0833 1.0000 -1.0000
vt 0.0278 1.0000 -1.0000
vt 0.0292 1.0000 -0.8794
vt 0.0874 1.0000 -0.6527
vt 0.1953 1.0000 -0.3473
# 139 texture coords

o Cylinder005
g Cylinder005
usemtl wire_153228184
f 1/1/1 2/2/2 3/3/3 4/4/4 5/5/5 6/6/6 7/7/7 8/8/8 9/9/9 10/10/10 11/11/11 12/12/12 13/13/13 14/14/14 15/15/15 16/16/16 17/17/17 18/18/18 
f 19/18/19 20/17/20 21/19/21 22/20/22 
f 20/17/20 23/16/23 24/21/24 21/19/21 
f 23/16/23 25/15/25 26/22/26 24/21/24 
f 25/15/25 27/14/27 28/23/28 26/22/26 
f 29/24/29 30/25/30 31/26/31 32/27/32 
f 33/25/33 34/28/3 35/29/34 36/26/35 
f 34/28/3 37/30/36 38/31/37 35/29/34 
f 37/30/36 39/32/38 40/33/39 38/31/37 
f 39/32/38 41/34/40 42/35/41 40/33/39 
f 43/34/42 44/36/43 45/37/44 46/35/45 
f 47/36/46 48/38/47 49/39/48 50/37/49 
f 48/38/47 51/40/50 52/41/51 49/39/48 
f 51/40/50 53/42/14 54/43/52 52/41/51 
f 53/42/14 55/44/53 56/45/54 54/43/52 
f 55/44/53 57/46/55 58/47/56 56/45/54 
f 57/46/55 59/48/11 60/49/57 58/47/56 
f 59/48/11 61/50/58 62/51/59 60/49/57 
f 63/50/60 64/18/61 65/20/62 66/51/63 
f 22/20/22 21/19/21 67/52/64 68/53/65 
f 21/19/21 24/21/24 69/54/66 67/52/64 
f 24/21/24 26/22/26 70/55/67 69/54/66 
f 26/22/26 28/23/28 71/56/68 70/55/67 
f 28/27/28 36/26/35 72/57/69 71/58/68 
f 36/26/35 35/29/34 73/59/70 72/57/69 
f 35/29/34 38/31/37 74/60/71 73/59/70 
f 38/31/37 40/33/39 75/61/72 74/60/71 
f 40/33/39 42/35/41 76/62/73 75/61/72 
f 42/35/41 50/37/49 77/63/74 76/62/73 
f 50/37/49 49/39/48 78/64/75 77/63/74 
f 49/39/48 52/41/51 79/65/76 78/64/75 
f 52/41/51 54/43/52 80/66/77 79/65/76 
f 54/43/52 56/45/54 81/67/78 80/66/77 
f 56/45/54 58/47/56 82/68/79 81/67/78 
f 58/47/56 60/49/57 83/69/80 82/68/79 
f 60/49/57 62/51/59 84/70/81 83/69/80 
f 62/51/59 22/20/22 68/53/65 84/70/81 
f 85/53/82 86/52/83 87/71/84 88/72/85 
f 86/52/83 89/54/86 90/73/87 87/71/84 
f 89/54/86 91/55/88 92/74/89 90/73/87 
f 91/55/88 93/56/90 94/75/91 92/74/89 
f 93/58/90 95/57/92 96/76/93 94/77/91 
f 95/57/92 97/59/94 98/78/95 96/76/93 
f 97/59/94 99/60/96 100/79/97 98/78/95 
f 99/60/96 101/61/98 102/80/99 100/79/97 
f 101/61/98 103/62/100 104/81/101 102/80/99 
f 103/62/100 105/63/102 106/82/103 104/81/101 
f 105/63/102 107/64/104 108/83/105 106/82/103 
f 107/64/104 109/65/106 110/84/107 108/83/105 
f 109/65/106 111/66/108 112/85/109 110/84/107 
f 111/66/108 113/67/110 114/86/111 112/85/109 
f 113/67/110 115/68/112 116/87/113 114/86/111 
f 115/68/112 117/69/114 118/88/115 116/87/113 
f 117/69/114 119/70/116 120/89/117 118/88/115 
f 119/70/116 85/53/82 88/72/85 120/89/117 
f 121/72/118 122/71/20 123/90/21 124/91/119 
f 122/71/20 125/73/23 126/92/24 123/90/21 
f 125/73/23 127/74/25 128/93/26 126/92/24 
f 127/74/25 129/75/5 130/94/120 128/93/26 
f 129/77/5 131/76/121 132/95/122 130/96/120 
f 131/76/121 133/78/3 134/97/34 132/95/122 
f 133/78/3 135/79/36 136/98/37 134/97/34 
f 135/79/36 137/80/38 138/99/39 136/98/37 
f 137/80/38 139/81/18 140/100/123 138/99/39 
f 139/81/18 141/82/124 142/101/125 140/100/123 
f 141/82/124 143/83/47 144/102/48 142/101/125 
f 143/83/47 145/84/50 146/103/51 144/102/48 
f 145/84/50 147/85/14 148/104/52 146/103/51 
f 147/85/14 149/86/53 150/105/54 148/104/52 
f 149/86/53 151/87/55 152/106/56 150/105/54 
f 151/87/55 153/88/11 154/107/57 152/106/56 
f 153/88/11 155/89/126 156/108/127 154/107/57 
f 155/89/126 121/72/118 124/91/119 156/108/127 
f 124/91/119 123/90/21 157/109/128 158/110/129 
f 123/90/21 126/92/24 159/111/130 157/109/128 
f 126/92/24 128/93/26 160/112/131 159/111/130 
f 128/93/26 130/94/120 161/113/132 160/112/131 
f 162/96/133 163/95/134 164/114/135 165/115/136 
f 132/95/122 134/97/34 166/116/137 167/114/138 
f 134/97/34 136/98/37 168/117/139 166/116/137 
f 136/98/37 138/99/39 169/118/140 168/117/139 
f 138/99/39 140/100/123 170/119/141 169/118/140 
f 171/100/142 172/101/143 173/120/144 174/119/145 
f 142/101/125 144/102/48 175/121/146 176/120/147 
f 144/102/48 146/103/51 177/122/148 175/121/146 
f 146/103/51 148/104/52 178/123/149 177/122/148 
f 148/104/52 150/105/54 179/124/150 178/123/149 
f 150/105/54 152/106/56 180/125/151 179/124/150 
f 152/106/56 154/107/57 181/126/152 180/125/151 
f 154/107/57 156/108/127 182/127/153 181/126/152 
f 183/108/154 184/91/155 185/110/156 186/127/157 
f 187/127/158 188/110/159 189/109/160 190/111/161 191/112/162 192/113/163 193/128/164 194/129/165 195/130/166 196/131/167 197/132/168 198/133/169 199/134/170 200/135/171 201/136/172 202/137/173 203/138/174 204/139/175 
f 158/110/129 157/109/128 189/109/160 188/110/159 
f 157/109/128 159/111/130 190/111/161 189/109/160 
f 159/111/130 160/112/131 191/112/162 190/111/161 
f 160/112/131 161/113/132 192/113/163 191/112/162 
f 161/113/132 167/128/138 193/128/164 192/113/163 
f 167/128/138 166/129/137 194/129/165 193/128/164 
f 166/129/137 168/130/139 195/130/166 194/129/165 
f 168/130/139 169/131/140 196/131/167 195/130/166 
f 169/131/140 170/132/141 197/132/168 196/131/167 
f 170/132/141 176/133/147 198/133/169 197/132/168 
f 176/133/147 175/134/146 199/134/170 198/133/169 
f 175/134/146 177/135/148 200/135/171 199/134/170 
f 177/135/148 178/136/149 201/136/172 200/135/171 
f 178/136/149 179/137/150 202/137/173 201/136/172 
f 179/137/150 180/138/151 203/138/174 202/137/173 
f 180/138/151 181/139/152 204/139/175 203/138/174 
f 181/139/152 182/127/153 187/127/158 204/139/175 
f 182/127/153 158/110/129 188/110/159 187/127/158 
f 27/24/27 33/25/33 30/25/30 29/24/29 
f 33/25/33 36/26/35 31/26/31 30/25/30 
f 36/26/35 28/27/28 32/27/32 31/26/31 
f 28/27/28 27/24/27 29/24/29 32/27/32 
f 41/34/40 47/36/46 44/36/43 43/34/42 
f 47/36/46 50/37/49 45/37/44 44/36/43 
f 50/37/49 42/35/41 46/35/45 45/37/44 
f 42/35/41 41/34/40 43/34/42 46/35/45 
f 61/50/58 19/18/19 64/18/61 63/50/60 
f 19/18/19 22/20/22 65/20/62 64/18/61 
f 22/20/22 62/51/59 66/51/63 65/20/62 
f 62/51/59 61/50/58 63/50/60 66/51/63 
f 20/17/20 19/18/19 205/18/176 206/17/177 
f 19/18/19 61/1/58 207/1/178 205/18/176 
f 61/1/58 59/2/11 208/2/97 207/1/178 
f 59/2/11 57/3/55 209/3/95 208/2/97 
f 57/3/55 55/4/53 210/4/179 209/3/95 
f 55/4/53 53/5/14 211/5/91 210/4/179 
f 53/5/14 51/6/50 212/6/89 211/5/91 
f 51/6/50 48/7/47 213/7/87 212/6/89 
f 48/7/47 47/8/46 214/8/84 213/7/87 
f 47/8/46 41/9/40 215/9/85 214/8/84 
f 41/9/40 39/10/38 216/10/180 215/9/85 
f 39/10/38 37/11/36 217/11/115 216/10/180 
f 37/11/36 34/12/3 218/12/113 217/11/115 
f 34/12/3 33/13/33 219/13/111 218/12/113 
f 33/13/33 27/14/27 220/14/109 219/13/111 
f 27/14/27 25/15/25 221/15/181 220/14/109 
f 25/15/25 23/16/23 222/16/182 221/15/181 
f 23/16/23 20/17/20 206/17/177 222/16/182 
f 206/17/177 205/18/176 18/18/18 17/17/17 
f 205/18/176 207/1/178 1/1/1 18/18/18 
f 207/1/178 208/2/97 2/2/2 1/1/1 
f 208/2/97 209/3/95 3/3/3 2/2/2 
f 209/3/95 210/4/179 4/4/4 3/3/3 
f 210/4/179 211/5/91 5/5/5 4/4/4 
f 211/5/91 212/6/89 6/6/6 5/5/5 
f 212/6/89 213/7/87 7/7/7 6/6/6 
f 213/7/87 214/8/84 8/8/8 7/7/7 
f 214/8/84 215/9/85 9/9/9 8/8/8 
f 215/9/85 216/10/180 10/10/10 9/9/9 
f 216/10/180 217/11/115 11/11/11 10/10/10 
f 217/11/115 218/12/113 12/12/12 11/11/11 
f 218/12/113 219/13/111 13/13/13 12/12/12 
f 219/13/111 220/14/109 14/14/14 13/13/13 
f 220/14/109 221/15/181 15/15/15 14/14/14 
f 221/15/181 222/16/182 16/16/16 15/15/15 
f 222/16/182 206/17/177 17/17/17 16/16/16 
f 130/96/120 132/95/122 163/95/134 162/96/133 
f 132/95/122 167/114/138 164/114/135 163/95/134 
f 167/114/138 161/115/132 165/115/136 164/114/135 
f 161/115/132 130/96/120 162/96/133 165/115/136 
f 140/100/123 142/101/125 172/101/143 171/100/142 
f 142/101/125 176/120/147 173/120/144 172/101/143 
f 176/120/147 170/119/141 174/119/145 173/120/144 
f 170/119/141 140/100/123 171/100/142 174/119/145 
f 156/108/127 124/91/119 184/91/155 183/108/154 
f 124/91/119 158/110/129 185/110/156 184/91/155 
f 158/110/129 182/127/153 186/127/157 185/110/156 
f 182/127/153 156/108/127 183/108/154 186/127/157 
f 68/53/65 67/52/64 86/52/83 85/53/82 
f 67/52/64 69/54/66 89/54/86 86/52/83 
f 69/54/66 70/55/67 91/55/88 89/54/86 
f 70/55/67 71/56/68 93/56/90 91/55/88 
f 71/58/68 72/57/69 95/57/92 93/58/90 
f 72/57/69 73/59/70 97/59/94 95/57/92 
f 73/59/70 74/60/71 99/60/96 97/59/94 
f 74/60/71 75/61/72 101/61/98 99/60/96 
f 75/61/72 76/62/73 103/62/100 101/61/98 
f 76/62/73 77/63/74 105/63/102 103/62/100 
f 77/63/74 78/64/75 107/64/104 105/63/102 
f 78/64/75 79/65/76 109/65/106 107/64/104 
f 79/65/76 80/66/77 111/66/108 109/65/106 
f 80/66/77 81/67/78 113/67/110 111/66/108 
f 81/67/78 82/68/79 115/68/112 113/67/110 
f 82/68/79 83/69/80 117/69/114 115/68/112 
f 83/69/80 84/70/81 119/70/116 117/69/114 
f 84/70/81 68/53/65 85/53/82 119/70/116 
f 122/71/20 121/72/118 88/72/85 87/71/84 
f 121/72/118 155/89/126 120/89/117 88/72/85 
f 155/89/126 153/88/11 118/88/115 120/89/117 
f 153/88/11 151/87/55 116/87/113 118/88/115 
f 151/87/55 149/86/53 114/86/111 116/87/113 
f 149/86/53 147/85/14 112/85/109 114/86/111 
f 147/85/14 145/84/50 110/84/107 112/85/109 
f 145/84/50 143/83/47 108/83/105 110/84/107 
f 143/83/47 141/82/124 106/82/103 108/83/105 
f 141/82/124 139/81/18 104/81/101 106/82/103 
f 139/81/18 137/80/38 102/80/99 104/81/101 
f 137/80/38 135/79/36 100/79/97 102/80/99 
f 135/79/36 133/78/3 98/78/95 100/79/97 
f 133/78/3 131/76/121 96/76/93 98/78/95 
f 131/76/121 129/77/5 94/77/91 96/76/93 
f 129/75/5 127/74/25 92/74/89 94/75/91 
f 127/74/25 125/73/23 90/73/87 92/74/89 
f 125/73/23 122/71/20 87/71/84 90/73/87 
# 206 polygons

